<svg xmlns="http://www.w3.org/2000/svg" viewBox="0 0 360 220" fill="none" aria-hidden="true">
  <defs>
    <linearGradient id="fg" x1="0" y1="0" x2="1" y2="1">
      <stop offset="0%" stop-color="#ff8f5c"/>
      <stop offset="100%" stop-color="#5f6956"/>
    </linearGradient>
    <linearGradient id="fb" x1="0" y1="0" x2="0" y2="1">
      <stop offset="0%" stop-color="#fafaf4"/>
      <stop offset="100%" stop-color="#f2f2e6"/>
    </linearGradient>
  </defs>
  <rect width="360" height="220" rx="24" fill="url(#fb)"/>
  <circle cx="300" cy="160" r="52" fill="url(#fg)" opacity="0.2"/>
  <ellipse cx="180" cy="200" rx="140" ry="24" fill="#5f6956" opacity="0.08"/>
  <g transform="translate(108,56)">
    <circle cx="48" cy="32" r="22" fill="#fff" stroke="#a3ad98" stroke-width="2"/>
    <path d="M48 58c-16 0-28 12-30 28h60c-2-16-14-28-30-28z" fill="#e8e8dc" stroke="#a3ad98" stroke-width="2"/>
  </g>
  <g transform="translate(188,48)">
    <circle cx="40" cy="36" r="20" fill="#fff" stroke="#8a9480" stroke-width="2"/>
    <path d="M40 60c-14 0-24 10-26 24h52c-2-14-12-24-26-24z" fill="#dcdccb" stroke="#8a9480" stroke-width="2"/>
  </g>
  <path d="M168 108c8-4 18-4 26 0" stroke="#ff6b35" stroke-width="2.5" stroke-linecap="round" fill="none" opacity="0.7"/>
  <path d="M176 100l8 8 14-16" stroke="#5f6956" stroke-width="2.5" stroke-linecap="round" stroke-linejoin="round" fill="none" opacity="0.85"/>
  <rect x="140" y="148" width="80" height="36" rx="10" fill="#fff" stroke="#dcdccb" stroke-width="2"/>
  <path d="M180 162v12M174 168h12" stroke="#5f6956" stroke-width="2.5" stroke-linecap="round" opacity="0.6"/>
</svg>
