<svg xmlns="http://www.w3.org/2000/svg" viewBox="0 0 360 220" fill="none" aria-hidden="true">
  <defs>
    <linearGradient id="sg" x1="0" y1="0" x2="1" y2="1">
      <stop offset="0%" stop-color="#c4b5fd"/>
      <stop offset="100%" stop-color="#6d28d9"/>
    </linearGradient>
    <linearGradient id="sb" x1="0" y1="0" x2="0" y2="1">
      <stop offset="0%" stop-color="#faf5ff"/>
      <stop offset="100%" stop-color="#ede9fe"/>
    </linearGradient>
  </defs>
  <rect width="360" height="220" rx="24" fill="url(#sb)"/>
  <circle cx="292" cy="44" r="40" fill="url(#sg)" opacity="0.25"/>
  <circle cx="56" cy="170" r="28" fill="#8b5cf6" opacity="0.15"/>
  <rect x="52" y="48" width="256" height="132" rx="18" fill="#fff" stroke="#ddd6fe" stroke-width="2"/>
  <rect x="52" y="48" width="256" height="36" rx="18" fill="url(#sg)" opacity="0.92"/>
  <rect x="140" y="60" width="80" height="10" rx="4" fill="#fff" opacity="0.45"/>
  <g stroke="#c4b5fd" stroke-width="1.5" opacity="0.9">
    <line x1="76" y1="108" x2="284" y2="108"/>
    <line x1="76" y1="128" x2="284" y2="128"/>
    <line x1="76" y1="148" x2="284" y2="148"/>
  </g>
  <rect x="84" y="116" width="36" height="28" rx="6" fill="#6d28d9" opacity="0.85"/>
  <rect x="128" y="120" width="32" height="20" rx="10" fill="#ddd6fe" stroke="#a78bfa" stroke-width="1.5"/>
  <rect x="168" y="120" width="32" height="20" rx="10" fill="#ddd6fe" stroke="#a78bfa" stroke-width="1.5"/>
  <path d="M108 176h24v8a4 4 0 0 1-4 4h-16a4 4 0 0 1-4-4v-8z" fill="#8b5cf6" opacity="0.35"/>
  <ellipse cx="120" cy="176" rx="12" ry="6" fill="#6d28d9" opacity="0.5"/>
</svg>
